# xmcd CD database file
#
# Track frame offsets:
#	151
#	26580
#	45201
#	75181
#	92632
#	121759
#	153033
#	179638
#	201539
#	224060
#	249211
#	274040
#	300727
#
# Disc length: 4442 seconds
#
# Revision: 0
# Processed by: cddbd v1.5.2PL0 Copyright (c) Steve Scherf et al.
# Submitted via: CDex 1.51
#
DISCID=a211580d
DTITLE=Camel Sax - Various
DYEAR=1988
DGENRE=Jazz
TTITLE0=Clarence Clemons/Spirit Dance
TTITLE1=Al Williams/Red
TTITLE2=Grover Washington .Jr/Can You Stop The Rain
TTITLE3=Jan Garbarek/Red Wind
TTITLE4=Marion Mesdows/Summer's Over
TTITLE5=Najee/Now That I Found You
TTITLE6=Clarence Clamons/Blue Moon
TTITLE7=Jazz At The Movies Band/Somewhere In Time
TTITLE8=Art Porter/We Are One
TTITLE9=Goto Barvieri/Straight Into The Sunrise
TTITLE10=Harry Allen/That Are You Doing The Rest Of Your Life
TTITLE11=Kirk Whalum/For All We Know
TTITLE12=Jan Garbarek/The Healing Smoke
EXTD=YEAR: 1988
EXTT0=
EXTT1=
EXTT2=
EXTT3=
EXTT4=
EXTT5=
EXTT6=
EXTT7=
EXTT8=
EXTT9=
EXTT10=
EXTT11=
EXTT12=
PLAYORDER=
